<?xml version="1.0" encoding="utf-8" ?>
<svg xmlns="http://www.w3.org/2000/svg" xmlns:xlink="http://www.w3.org/1999/xlink" width="204" height="237">
	<path fill="#39B6FC" d="M101.915 195.316C107.964 195.094 114.028 195.55 120.081 195.158C120.003 196.25 120.053 197.359 120.046 198.454C120.038 199.568 120.16 200.873 119.303 201.718C119.048 201.744 118.756 201.828 118.523 201.72C117.359 201.183 117.047 199.963 116.652 198.848Q112.662 198.765 108.672 198.837C108.816 201.133 108.919 203.535 108.71 205.826C110.577 206.613 113.5 205.803 115.568 206.147C116.49 206.301 116.893 206.642 117.403 207.376C117.48 207.863 117.567 208.239 117.334 208.702C117.229 208.912 116.846 209.045 116.626 209.108C114.832 209.62 110.466 209.66 108.861 208.833C108.759 210.605 108.811 212.411 108.794 214.187C108.766 214.992 108.647 216.252 109.1 216.912C110.922 217.069 115.065 217.411 116.606 216.559C117.137 216.127 117.598 214.949 118.052 214.334C118.717 214.059 118.894 214.085 119.595 214.245C120.48 215.307 120.026 218.445 119.968 219.832C119.864 219.898 119.766 219.954 119.656 220.009C118.797 220.442 103.032 220.492 102.08 220.101C101.624 219.914 101.623 219.808 101.446 219.379C101.647 217.949 103.226 217.413 104.157 216.487L104.288 216.355C104.002 210.557 104.291 204.696 104.168 198.885C103.147 198.419 102.143 197.983 101.592 196.956C101.526 196.215 101.589 195.986 101.915 195.316Z"/>
	<path fill="#39B6FC" d="M53.3628 195.079C55.7768 194.95 60.8555 195.344 62.7503 196.965C63.3037 197.438 63.4169 198.518 63.4662 199.202C63.5576 200.472 63.5026 202.512 62.6161 203.479C62.4773 203.631 62.2883 203.579 62.0912 203.584C60.9419 202.757 60.5511 200.956 60.2137 199.654C58.5633 199.147 56.8459 198.794 55.1145 198.752C52.7336 198.693 50.3686 199.329 48.6266 201.034C46.8317 202.791 45.978 205.377 45.9642 207.852C45.95 210.395 46.771 213.098 48.6262 214.909C50.493 216.73 52.8209 217.145 55.319 217.101C56.8713 217.073 58.4311 216.967 59.574 215.787C59.7503 214.207 59.5757 212.573 59.483 210.989C59.051 211.161 58.5983 211.22 58.1381 211.265C57.0724 211.37 56.517 211.188 55.7207 210.536C55.3323 210.059 55.1836 209.753 55.0614 209.15C56.2221 207.102 61.621 208.716 63.6729 207.825C63.7844 210.06 64.4064 216.244 63.1746 217.952C62.0025 219.576 59.3702 219.973 57.5294 220.275C53.6691 220.907 49.8148 220.62 46.562 218.252C43.8027 216.243 42.1652 213.231 41.6495 209.886C41.1213 206.459 41.8061 202.765 43.8971 199.953C46.2996 196.722 49.5324 195.651 53.3628 195.079Z"/>
	<path fill="#39B6FC" d="M156.951 195.294C159.856 195.215 162.794 195.276 165.698 195.356C169.859 195.47 172.872 195.959 175.834 199.088C176.094 200.099 176.387 201.285 176.387 202.33C176.388 204.231 175.588 206.616 174.202 207.933C173.401 208.694 172.229 209.336 171.103 209.307C172.415 211.518 174.368 214.676 176.263 216.395C176.885 216.958 177.643 217.346 178.311 217.845C178.886 218.275 179.196 218.652 179.312 219.368C179.157 219.789 179.133 219.935 178.734 220.161C177.8 220.688 175.505 220.669 174.464 220.358C173.005 219.922 172.027 218.198 171.365 216.925C170.5 216.398 168.512 212.64 167.643 211.612C166.888 210.718 166.116 209.875 164.905 209.769C164.476 210.073 164.302 210.347 164.139 210.855C163.826 211.828 163.64 215.575 164.133 216.474C164.653 217.422 166.228 217.748 166.693 218.737C166.849 219.069 166.707 219.237 166.592 219.568C166.366 219.746 166.131 219.9 165.865 220.012C164.355 220.645 159.272 220.796 157.748 220.141C157.152 219.885 157 219.658 156.769 219.07C157.111 217.447 158.617 217.481 159.699 216.501L159.832 216.379C158.876 210.661 159.81 204.64 159.491 198.858C158.415 198.504 157.478 198.231 156.847 197.234C156.675 196.468 156.697 196.036 156.951 195.294ZM163.866 198.691C164.083 201.351 163.492 204.585 164.065 207.122C165.437 207.815 167.804 207.38 169.195 206.926C169.844 206.714 170.29 206.492 170.618 205.864C171.399 205.394 171.951 204.793 172.167 203.881C172.411 202.853 172.052 201.55 171.486 200.682C171.127 200.131 170.667 199.616 170.188 199.166C168.153 198.934 165.904 198.565 163.866 198.691Z"/>
	<path fill="#39B6FC" d="M138.509 212.101C140.291 210.584 145.708 196.753 147.809 195.635C148.813 195.101 153.331 194.96 154.421 195.304C154.889 195.451 154.937 195.619 155.161 196.026C154.908 197.55 153.486 197.898 152.532 198.85C151.428 202.03 151.891 212.521 152.017 216.4C152.823 217.199 154.023 217.622 154.679 218.588C155.022 219.093 154.974 219.375 154.838 219.939C152.028 220.433 148.322 220.531 145.478 220.289L145.133 219.839C145.067 219.486 144.979 219.089 145.045 218.732C145.364 217.008 146.98 217.627 148.144 216.768C148.181 216.741 148.215 216.712 148.25 216.683C148.172 214.521 148.187 212.351 148.168 210.187C148.276 207.496 147.999 204.785 148.049 202.083C145.622 206.504 143.561 211.381 140.818 215.591C140.203 216.535 139.637 217.281 138.492 217.524L138.395 217.502C138.232 217.468 138.257 217.479 138.081 217.424C135.866 216.731 130.231 204.354 129.027 201.854C128.859 206.264 128.448 212.379 128.814 216.641C129.247 217.259 129.892 217.314 130.588 217.565C131.442 217.873 131.791 218.046 132.181 218.876C132.133 219.38 132.027 219.634 131.716 220.033C130.505 220.352 123.434 220.621 122.568 220.212C122.118 220 122.133 219.869 121.989 219.425C122.419 217.293 123.69 218.026 124.752 216.695C124.859 214.147 125.449 200.634 124.666 199.183C124.175 198.274 122.955 198.341 122.389 197.568C121.901 196.902 122.052 196.028 122.183 195.27C123.821 195.253 125.552 195.134 127.178 195.299C127.816 195.364 128.568 195.497 129.098 195.879C132.538 198.362 135.436 208.497 138.421 212.002C138.449 212.036 138.479 212.068 138.509 212.101Z"/>
	<path fill="#39B6FC" d="M78.0071 195.099C80.4425 195.172 82.6933 195.571 84.8383 196.78C87.7958 198.447 89.811 201.21 90.7072 204.464C91.639 207.848 91.0714 211.652 89.3246 214.683C87.7554 217.406 85.2957 219.198 82.2621 219.99C81.2857 220.245 80.0557 220.63 79.1318 220.084C78.7008 220.375 78.2622 220.502 77.7499 220.543C75.2105 220.75 71.755 219.285 69.822 217.653C67.2378 215.471 65.888 212.246 65.6241 208.921C65.3448 205.402 66.3532 201.967 68.6713 199.278C71.189 196.359 74.273 195.38 78.0071 195.099ZM77.6128 198.848C75.4366 199.082 73.6173 199.777 72.1759 201.529C70.5133 203.549 69.891 206.494 70.1783 209.056C70.4537 211.513 71.6148 214.065 73.5771 215.626C74.8298 216.622 76.8039 217.169 78.4119 216.93C78.6683 216.892 78.8945 216.803 79.1297 216.7C79.1825 216.676 79.2365 216.656 79.2888 216.632C79.3204 216.617 79.3504 216.599 79.3812 216.583C80.3541 216.866 81.1595 216.741 82.0704 216.251C84.0599 215.18 85.4657 212.668 86.0602 210.545C86.8058 207.884 86.4881 204.749 85.1044 202.34C84.139 200.66 82.7687 199.61 80.8988 199.128C79.9183 198.876 78.6094 198.657 77.6128 198.848Z"/>
	<path fill="#39B6FC" d="M184.992 106.09C185.253 111.369 186.276 118.099 182.401 122.345C180.147 124.814 177.812 125.594 174.521 125.734C166.474 126.074 158.29 125.78 150.229 125.775C143.68 125.772 136.991 126.098 130.463 125.8Q134.184 117.03 137.623 108.146C150.559 108.007 163.505 108.262 176.442 108.141C179.103 108.116 182.994 108.123 184.992 106.09Z"/>
	<path fill="#39B6FC" d="M22.2279 105.288C26.8911 106.155 31.5773 106.04 36.3005 106.031L55 105.988C58.4656 105.98 62.0233 105.802 65.4764 106.07C69.6987 110.555 73.6748 120.23 77.1523 125.745C76.1989 125.829 75.2209 125.797 74.2631 125.802L46.0311 125.783C41.3858 125.792 34.2187 126.362 29.7981 125.431C28.0496 125.062 26.4005 124.075 25.1445 122.817C21.0516 118.717 22.1917 110.606 22.2279 105.288Z"/>
	<path fill="#39B6FC" d="M79.2556 131.643C81.6492 131.208 84.4944 135.819 86.9517 132.17C90.263 127.254 95.3115 91.4573 96.7587 90.6444C97.5024 91.2081 97.8987 92.1579 98.268 92.9922C100.142 97.2261 101.555 101.793 103.137 106.153L111.709 129.824C113.177 133.936 114.655 139.822 117.049 143.35C117.826 144.494 119.098 145.681 120.599 145.511C121.434 145.416 122.156 144.92 122.651 144.26C123.722 142.831 125.837 137.014 127.181 136.655C127.573 136.896 127.687 136.961 127.799 137.443C127.92 137.963 127.902 138.595 127.924 139.128Q127.94 139.42 127.947 139.712C128.066 146.274 127.884 152.87 127.887 159.436C127.889 164.121 128.519 171.008 127.455 175.472C127.052 177.161 125.98 178.732 124.788 179.972C123.578 181.23 122.227 182.049 120.522 182.457C116.176 183.498 109.587 182.826 105.012 182.797C100.728 182.771 96.4606 182.935 92.1797 182.998C88.4595 183.053 85.2305 182.675 82.4643 179.959C81.0434 178.563 80.1622 176.94 79.7602 174.987C78.7299 169.983 79.2771 164.211 79.2781 159.09L79.2556 131.643Z"/>
	<path fill="#39B6FC" d="M79.4671 77.4118C79.1504 74.2309 79.3302 70.9448 79.3398 67.7488L79.3324 52.5475L79.3127 38.4727C79.3023 35.4082 79.0949 32.1594 79.5282 29.1283C79.7895 27.3003 80.5791 25.3862 81.7466 23.95C83.6851 21.5655 86.4213 20.6043 89.3976 20.3061C94.1497 19.8301 99.2365 20.248 104.027 20.2601C108.917 20.2724 114.421 19.6386 119.228 20.4906C121.05 20.8135 122.663 21.4996 124.098 22.6758C126.426 24.5831 127.499 27.1917 127.772 30.1314C128.054 33.1713 127.905 36.3091 127.902 39.3609L127.877 55.2657L127.934 69.7944C127.951 72.3209 128.117 74.9431 127.946 77.4603C131.66 77.2396 135.402 77.3715 139.122 77.3804L156.145 77.3704C161.583 77.365 171.092 76.8208 176.016 77.5945C178.047 77.9136 180.177 78.793 181.724 80.1647C184.123 82.2913 184.996 85.6939 185.155 88.7806C185.367 92.8772 184.933 97.0096 185.218 101.093C185.031 102.759 185.011 104.416 184.992 106.09C182.994 108.123 179.103 108.116 176.442 108.141C163.505 108.262 150.559 108.007 137.623 108.146Q134.184 117.03 130.463 125.8C128.397 130.387 127.887 134.16 127.924 139.128C127.902 138.595 127.92 137.963 127.799 137.443C127.687 136.961 127.573 136.896 127.181 136.655C125.837 137.014 123.722 142.831 122.651 144.26C122.156 144.92 121.434 145.416 120.599 145.511C119.098 145.681 117.826 144.494 117.049 143.35C114.655 139.822 113.177 133.936 111.709 129.824L103.137 106.153C101.555 101.793 100.142 97.2261 98.268 92.9922C97.8987 92.1579 97.5024 91.2081 96.7587 90.6444C95.3115 91.4573 90.263 127.254 86.9517 132.17C84.4944 135.819 81.6492 131.208 79.2556 131.643C79.2515 130.512 79.1961 129.547 78.8599 128.462C78.5591 127.492 78.0565 126.228 77.1523 125.745C73.6748 120.23 69.6987 110.555 65.4764 106.07C62.0233 105.802 58.4656 105.98 55 105.988L36.3005 106.031C31.5773 106.04 26.8911 106.155 22.2279 105.288L22.2205 98.8546C22.1716 93.3039 20.9482 84.8026 25.1283 80.5682C28.7566 76.8928 34.1118 77.3415 38.8959 77.3336C52.391 77.3115 65.9794 77.0189 79.4671 77.4118Z"/>
	<path fill="#7CD957" d="M82.3166 118.05C84.8673 108.157 86.8366 98.06 88.9947 88.0705C89.949 83.6531 90.626 78.7671 92.1386 74.51C92.585 73.2535 93.2969 71.6978 94.4946 71.0136C95.079 70.6797 95.7848 70.6257 96.4257 70.81C97.9937 71.2609 98.8117 72.5466 99.5309 73.9055C101.942 78.4608 103.425 83.891 105.211 88.7578Q110.201 102.097 115.016 115.501C116.666 120.194 118.021 125.486 120.468 129.821C124.39 122.228 128.216 106.112 132.933 100.43C140.802 99.8373 148.944 100.226 156.839 100.229C166.207 100.234 175.968 99.5636 185.218 101.093C185.031 102.759 185.011 104.416 184.992 106.09C182.994 108.123 179.103 108.116 176.442 108.141C163.505 108.262 150.559 108.007 137.623 108.146Q134.184 117.03 130.463 125.8C128.397 130.387 127.887 134.16 127.924 139.128C127.902 138.595 127.92 137.963 127.799 137.443C127.687 136.961 127.573 136.896 127.181 136.655C125.837 137.014 123.722 142.831 122.651 144.26C122.156 144.92 121.434 145.416 120.599 145.511C119.098 145.681 117.826 144.494 117.049 143.35C114.655 139.822 113.177 133.936 111.709 129.824L103.137 106.153C101.555 101.793 100.142 97.2261 98.268 92.9922C97.8987 92.1579 97.5024 91.2081 96.7587 90.6444C95.3115 91.4573 90.263 127.254 86.9517 132.17C84.4944 135.819 81.6492 131.208 79.2556 131.643C79.2515 130.512 79.1961 129.547 78.8599 128.462C78.5591 127.492 78.0565 126.228 77.1523 125.745C73.6748 120.23 69.6987 110.555 65.4764 106.07C62.0233 105.802 58.4656 105.98 55 105.988L36.3005 106.031C31.5773 106.04 26.8911 106.155 22.2279 105.288L22.2205 98.8546C28.6647 97.6395 35.5061 98.06 42.0551 98.0481Q56.2007 97.9662 70.3437 98.2448C74.9907 104.453 77.7829 111.794 82.3166 118.05Z"/>
</svg>
